<svg width="21" height="21" viewBox="0 0 21 21" fill="none" xmlns="http://www.w3.org/2000/svg">
<path d="M7.26917 9.69239H4.44221C4.10565 9.69239 3.81953 9.57463 3.58393 9.33903C3.34846 9.10343 3.23057 8.81739 3.23057 8.48074V8.07708C3.23057 7.18519 3.54613 6.42384 4.17722 5.79275C4.80826 5.16189 5.56974 4.84632 6.46154 4.84632H7.26917C7.48788 4.84632 7.67711 4.76636 7.83704 4.60657C7.99688 4.44668 8.0768 4.25745 8.0768 4.03869V2.42316C8.0768 2.20444 7.99683 2.01503 7.83704 1.85515C7.67716 1.69549 7.48793 1.61539 7.26917 1.61539H6.46154C5.58645 1.61539 4.75159 1.78593 3.95642 2.12651C3.16135 2.46732 2.47364 2.928 1.89303 3.50861C1.31247 4.08895 0.851922 4.7767 0.511162 5.57187C0.170402 6.36695 0 7.20203 0 8.07703V16.9614C0 17.6349 0.235469 18.2067 0.706628 18.678C1.17783 19.1491 1.75008 19.3846 2.42311 19.3846H7.26948C7.94247 19.3846 8.51454 19.1491 8.98579 18.678C9.45686 18.2067 9.69246 17.6349 9.69246 16.9614V12.1155C9.69246 11.4422 9.45686 10.8704 8.98548 10.399C8.51445 9.92799 7.94216 9.69239 7.26917 9.69239Z" fill="white"/>
<path d="M20.2937 10.399C19.8227 9.92799 19.2505 9.69239 18.5774 9.69239H15.7505C15.4141 9.69239 15.1277 9.57463 14.8925 9.33903C14.6568 9.10343 14.5391 8.81739 14.5391 8.48074V8.07708C14.5391 7.18519 14.8547 6.42384 15.4855 5.79275C16.1163 5.16189 16.8777 4.84632 17.77 4.84632H18.5774C18.7962 4.84632 18.9855 4.76636 19.1453 4.60657C19.305 4.44668 19.3853 4.25745 19.3853 4.03869V2.42316C19.3853 2.20444 19.3051 2.01503 19.1453 1.85515C18.9856 1.69549 18.7962 1.61539 18.5774 1.61539H17.77C16.8944 1.61539 16.0597 1.78593 15.2643 2.12651C14.4694 2.46732 13.7819 2.928 13.2013 3.50861C12.6207 4.08895 12.1599 4.7767 11.8193 5.57187C11.4786 6.36695 11.308 7.20203 11.308 8.07703V16.9614C11.308 17.6349 11.5437 18.2067 12.0147 18.678C12.4858 19.1491 13.0579 19.3846 13.731 19.3846H18.5771C19.2503 19.3846 19.8223 19.1491 20.2934 18.678C20.7648 18.2067 21 17.6349 21 16.9614V12.1155C21 11.4422 20.7648 10.8704 20.2937 10.399Z" fill="white"/>
</svg>
